<?xml version="1.0" standalone="no"?>
<!DOCTYPE svg PUBLIC "-//W3C//DTD SVG 20010904//EN"
 "http://www.w3.org/TR/2001/REC-SVG-20010904/DTD/svg10.dtd">
<svg version="1.0" xmlns="http://www.w3.org/2000/svg"
 width="900.000000pt" height="600.000000pt" viewBox="0 0 900.000000 600.000000"
 preserveAspectRatio="xMidYMid meet">

<g transform="translate(0.000000,600.000000) scale(0.100000,-0.100000)"
fill="#000000" stroke="none">
<path d="M1500 3880 l0 -900 890 0 890 0 0 -885 0 -885 895 0 895 0 0 900 0
900 -885 0 -885 0 0 885 0 885 -900 0 -900 0 0 -900z m1470 710 c23 -23 26
-50 8 -68 -9 -9 -9 -15 0 -24 17 -17 15 -58 -5 -80 -23 -26 -99 -25 -113 1
-16 31 -12 51 10 51 11 0 20 -6 20 -14 0 -20 31 -29 47 -13 18 17 6 47 -18 47
-12 0 -19 7 -19 20 0 13 7 20 20 20 13 0 20 7 20 20 0 24 -35 28 -44 5 -3 -8
-15 -15 -26 -15 -11 0 -20 7 -20 15 0 25 38 55 70 55 17 0 39 -9 50 -20z m175
0 c0 -10 -14 -17 -40 -20 -25 -3 -41 -11 -43 -21 -2 -12 5 -14 32 -11 28 3 37
-1 51 -22 21 -32 13 -91 -15 -106 -45 -24 -120 -1 -120 37 0 19 40 16 55 -4
18 -24 45 -9 45 26 0 31 -26 49 -44 31 -5 -5 -19 -10 -29 -10 -18 0 -19 5 -14
50 3 28 8 54 11 59 3 4 29 7 58 7 39 -2 53 -6 53 -16z m-726 -265 c90 -50 126
-119 119 -231 -3 -52 -9 -70 -34 -101 -17 -20 -50 -47 -73 -59 l-43 -21 36 -7
c59 -11 130 -87 151 -160 31 -107 -6 -245 -80 -302 -75 -57 -134 -67 -437 -72
l-278 -4 0 494 c0 272 2 497 4 499 2 2 134 2 293 -1 l288 -5 54 -30z m671
-315 c0 -88 -1 -90 -24 -90 -36 0 -108 -28 -134 -53 -53 -49 -57 -67 -60 -289
l-4 -208 -84 0 -84 0 0 355 0 355 85 0 85 0 0 -47 0 -48 26 33 c38 48 72 63
187 81 4 0 7 -39 7 -89z m1658 -1184 c-2 -16 -12 -22 -40 -24 -20 -2 -38 -9
-41 -16 -4 -9 4 -11 24 -8 42 6 69 -21 69 -68 0 -47 -28 -74 -77 -74 -34 0
-73 30 -73 55 0 16 42 9 56 -8 17 -24 49 -5 49 28 0 22 -3 24 -48 22 l-48 -3
6 48 c4 26 8 52 10 58 1 5 28 10 59 10 52 0 57 -2 54 -20z m150 8 c12 -8 22
-22 22 -30 0 -17 -31 -19 -47 -3 -16 16 -43 3 -43 -20 0 -14 5 -19 15 -15 51
20 94 -36 70 -93 -25 -59 -105 -50 -126 14 -16 51 -3 118 28 143 31 24 51 25
81 4z m-889 -260 c67 -19 141 -90 159 -150 36 -122 -19 -244 -122 -270 l-30
-7 41 -12 c102 -30 163 -120 163 -240 0 -142 -57 -227 -179 -267 -60 -19 -92
-22 -343 -26 l-278 -4 0 496 0 496 268 0 c215 0 279 -3 321 -16z m764 -268
c63 -19 103 -50 130 -99 20 -39 22 -59 27 -307 3 -146 9 -273 14 -282 7 -16 0
-18 -83 -18 -73 0 -93 3 -96 15 -3 8 -7 21 -9 29 -4 12 -17 8 -63 -17 -48 -26
-71 -32 -140 -35 -103 -6 -156 12 -208 69 -45 50 -55 76 -55 145 0 67 17 109
61 151 45 43 88 59 228 88 178 36 171 33 171 64 0 42 -38 71 -102 78 -92 9
-142 -16 -151 -79 -3 -16 -10 -23 -25 -22 -12 0 -51 1 -87 2 -72 2 -74 5 -55
73 15 55 67 107 135 134 50 20 77 25 161 25 58 0 120 -6 147 -14z"/>
<path d="M1970 4090 l0 -120 128 0 c182 0 224 16 241 93 11 48 -8 97 -48 124
-31 21 -45 23 -177 23 l-144 0 0 -120z"/>
<path d="M1976 3822 c-4 -3 -6 -68 -6 -145 l0 -139 163 4 c186 4 218 14 244
76 18 43 13 110 -12 148 -29 45 -75 56 -237 59 -81 2 -149 0 -152 -3z"/>
<path d="M4832 2703 c2 -20 9 -28 23 -28 14 0 21 8 23 28 3 23 0 27 -23 27
-23 0 -26 -4 -23 -27z"/>
<path d="M3610 2321 l0 -121 135 0 c95 0 146 4 170 14 78 33 88 154 16 203
-21 15 -53 19 -173 21 l-148 4 0 -121z"/>
<path d="M3610 1909 l0 -141 163 4 c177 3 210 12 237 63 20 38 16 121 -7 154
-39 52 -73 61 -240 61 l-153 0 0 -141z"/>
<path d="M4739 1946 c-3 -3 -48 -15 -100 -26 -149 -32 -169 -45 -169 -108 0
-22 9 -38 32 -57 28 -24 39 -27 88 -23 30 2 72 12 92 22 55 27 69 55 66 132
-2 36 -6 63 -9 60z"/>
<path d="M4931 4355 c-35 -8 -85 -25 -110 -37 -61 -31 -62 -56 -2 -79 24 -8
47 -23 52 -31 5 -8 10 -165 11 -349 3 -363 3 -366 -52 -394 -18 -9 -30 -24
-30 -35 0 -35 37 -45 165 -45 128 0 165 10 165 45 0 13 -14 27 -39 39 -29 15
-40 28 -45 52 -9 46 -7 227 2 233 12 7 52 -37 186 -206 105 -133 120 -148 158
-159 78 -21 198 7 198 46 0 17 -34 41 -73 50 -47 12 -297 302 -297 345 0 14
67 85 113 120 10 7 41 21 69 30 29 9 57 24 62 33 26 41 -69 72 -184 61 -103
-10 -137 -43 -84 -81 20 -15 25 -25 20 -41 -9 -27 -140 -142 -163 -142 -14 0
-15 26 -11 266 6 323 13 305 -111 279z"/>
<path d="M5699 4311 c-70 -70 -9 -155 99 -138 74 12 107 93 57 142 -19 20 -34
25 -75 25 -44 0 -56 -5 -81 -29z"/>
<path d="M7425 4103 c-51 -39 -81 -45 -167 -28 -102 19 -151 19 -218 -1 -117
-35 -187 -114 -197 -223 -7 -70 8 -120 49 -167 30 -34 30 -35 12 -49 -11 -8
-22 -15 -26 -15 -14 0 -58 -75 -58 -98 0 -34 25 -76 54 -91 l25 -14 -44 -42
c-39 -36 -45 -47 -45 -82 0 -60 33 -102 112 -142 59 -29 81 -34 160 -38 192
-10 340 54 394 172 29 61 29 87 4 143 -15 34 -29 47 -66 64 -44 19 -58 20
-215 13 -190 -8 -235 0 -245 42 -4 13 -1 36 5 49 10 23 15 24 48 17 21 -4 76
-8 123 -7 106 1 174 27 229 90 59 67 78 164 47 238 -14 34 -14 34 24 65 46 37
59 77 33 102 -16 16 -20 16 -38 2z m-210 -133 c74 -72 63 -211 -20 -266 -33
-22 -102 -20 -134 4 -38 27 -61 80 -61 137 0 138 126 211 215 125z m120 -605
c30 -29 31 -50 6 -91 -56 -92 -277 -110 -358 -29 -36 36 -41 61 -18 105 15 29
16 29 118 33 56 1 130 4 165 5 55 2 66 -1 87 -23z"/>
<path d="M3629 4076 c-102 -27 -181 -95 -228 -196 -23 -48 -26 -68 -26 -155 0
-93 2 -105 33 -167 37 -76 82 -120 162 -157 46 -22 69 -26 140 -26 76 0 93 4
151 32 77 38 152 112 147 146 -5 35 -34 31 -99 -12 -67 -45 -107 -56 -180 -49
-97 10 -179 97 -182 196 l-2 47 223 5 c209 5 225 6 239 25 21 28 10 115 -23
183 -56 114 -206 169 -355 128z m121 -76 c64 -18 132 -117 113 -166 -8 -21
-301 -21 -309 1 -19 50 37 143 98 162 44 14 56 15 98 3z"/>
<path d="M4295 4077 c-101 -27 -165 -81 -165 -141 0 -41 15 -56 59 -56 28 0
45 10 96 59 69 66 113 82 166 61 40 -17 59 -56 62 -130 l2 -61 -125 -2 c-107
-2 -132 -5 -175 -25 -94 -43 -134 -105 -135 -203 0 -77 31 -135 95 -174 43
-27 57 -30 129 -30 74 0 87 3 143 35 l62 34 36 -37 c42 -43 84 -48 150 -18 74
33 86 76 27 95 -18 6 -37 18 -42 26 -5 8 -10 97 -10 197 0 100 -5 205 -11 233
-21 99 -85 140 -229 146 -50 2 -106 -2 -135 -9z m195 -356 c22 -6 25 -12 23
-56 0 -28 -1 -67 -2 -88 -1 -28 -9 -46 -30 -68 -26 -25 -37 -29 -86 -29 -70 0
-112 21 -131 65 -30 72 -8 135 59 166 42 19 119 24 167 10z"/>
<path d="M5760 4074 c-76 -20 -144 -56 -148 -77 -3 -13 7 -22 37 -34 29 -11
43 -24 50 -46 14 -38 14 -377 1 -412 -6 -15 -22 -30 -40 -36 -22 -8 -30 -17
-30 -35 0 -39 33 -49 168 -49 120 0 124 1 144 25 l20 25 -22 15 c-12 8 -33 25
-47 38 l-25 23 3 277 c2 152 0 283 -4 290 -10 15 -38 14 -107 -4z"/>
<path d="M6185 4083 c-63 -14 -153 -48 -170 -64 -25 -24 -12 -50 33 -63 25 -7
34 -17 42 -45 13 -47 13 -372 0 -406 -6 -15 -22 -30 -39 -36 -72 -25 -35 -74
64 -84 75 -8 176 -1 205 15 32 17 25 48 -15 67 -20 10 -38 27 -41 39 -3 13 -4
92 -2 176 2 129 6 159 23 193 36 72 119 105 185 72 50 -25 64 -76 68 -252 4
-183 -1 -208 -53 -229 -41 -18 -47 -49 -12 -67 30 -17 254 -17 285 -1 32 18
27 47 -13 70 -19 12 -37 31 -39 44 -3 13 -7 106 -8 208 -3 183 -3 186 -33 245
-68 135 -233 166 -348 65 -25 -22 -48 -40 -51 -40 -3 0 -6 17 -6 38 0 55 -17
68 -75 55z"/>
<path d="M5725 2583 c-11 -2 -48 -13 -81 -24 -101 -33 -120 -75 -43 -98 27 -8
43 -20 49 -37 11 -27 14 -137 4 -146 -3 -3 -27 3 -55 13 -61 24 -168 25 -232
3 -68 -23 -140 -92 -179 -172 -32 -64 -33 -72 -33 -182 0 -132 17 -185 83
-253 100 -104 234 -116 357 -31 l65 44 0 -33 c0 -54 19 -71 71 -63 65 10 166
45 180 62 19 23 0 47 -44 57 -19 5 -39 16 -43 25 -5 9 -9 197 -9 417 0 220 -4
406 -8 413 -8 12 -42 14 -82 5z m-136 -382 c9 -5 27 -21 41 -36 24 -26 25 -30
25 -183 0 -171 -8 -204 -60 -238 -34 -22 -96 -29 -139 -14 -85 28 -145 156
-133 287 11 113 60 186 138 202 34 7 97 -2 128 -18z"/>
</g>
</svg>
