<?xml version="1.0" standalone="no"?>
<!DOCTYPE svg PUBLIC "-//W3C//DTD SVG 20010904//EN"
 "http://www.w3.org/TR/2001/REC-SVG-20010904/DTD/svg10.dtd">
<svg version="1.0" xmlns="http://www.w3.org/2000/svg"
 width="348.000000pt" height="261.000000pt" viewBox="0 0 348.000000 261.000000"
 preserveAspectRatio="xMidYMid meet">

<g transform="translate(0.000000,261.000000) scale(0.100000,-0.100000)"
fill="#000000" stroke="none">
<path d="M204 1656 c-58 -58 -49 -90 50 -159 14 -10 26 -25 26 -33 0 -9 -27
-45 -60 -81 -36 -40 -60 -75 -60 -88 0 -37 33 -67 96 -89 45 -16 60 -26 62
-43 5 -34 -31 -63 -79 -63 -77 0 -127 38 -147 111 l-9 34 -8 -38 c-11 -54 -1
-125 22 -156 10 -14 41 -37 69 -51 44 -23 59 -25 154 -23 58 2 670 5 1360 9
890 4 1299 2 1406 -6 176 -13 227 -5 279 44 41 39 58 98 49 167 l-7 52 -16
-44 c-34 -92 -172 -133 -217 -64 -22 34 -9 49 68 77 65 23 94 54 84 91 -3 13
-31 51 -61 85 -33 36 -55 69 -53 79 2 10 23 30 46 46 56 38 69 66 52 108 -15
35 -63 69 -99 69 l-24 0 27 -26 c42 -43 39 -49 -66 -114 -64 -39 -69 -64 -29
-135 33 -58 40 -109 18 -139 -19 -26 -75 -18 -99 15 -17 23 -18 31 -9 67 21
75 -35 149 -106 140 l-26 -3 26 -31 c15 -18 27 -44 27 -58 0 -40 -24 -90 -55
-114 -29 -23 -95 -30 -95 -11 0 6 27 85 60 176 33 90 60 167 60 169 0 2 -33 4
-73 4 -61 0 -77 -3 -92 -20 -23 -26 -35 -26 -28 0 5 20 2 21 -78 18 l-83 -3
-23 -40 c-14 -25 -23 -33 -23 -22 0 10 -13 32 -29 48 -29 29 -31 29 -146 29
-124 0 -157 -10 -185 -54 -8 -11 -40 -88 -71 -171 -32 -82 -58 -139 -59 -125
0 14 5 75 11 135 9 82 16 114 29 125 22 18 40 53 40 75 0 15 -13 16 -109 13
-90 -2 -113 -6 -130 -22 -11 -10 -67 -93 -123 -182 l-101 -164 -69 0 c-37 0
-68 3 -68 6 0 4 5 24 12 45 11 38 12 39 60 39 60 0 83 11 103 50 27 53 22 60
-45 60 -64 0 -73 9 -46 45 10 14 28 19 67 21 30 1 59 2 66 3 13 1 53 62 53 80
0 16 -280 15 -303 -1 -10 -7 -45 -87 -80 -178 l-62 -165 -63 -3 c-47 -2 -62 0
-62 11 0 7 27 87 60 177 33 90 60 165 60 167 0 2 -33 3 -73 3 -80 0 -96 -9
-130 -75 -14 -27 -16 -27 -17 -8 0 35 -22 73 -44 79 -12 2 -115 3 -231 2
l-210 -3 -23 -45 -22 -45 75 -3 c41 -2 75 -6 75 -10 -1 -23 -89 -247 -99 -250
-19 -6 -78 61 -89 102 -12 41 -4 74 22 95 24 20 19 29 -14 25 -73 -9 -101 -51
-97 -146 2 -63 2 -63 -33 -80 -29 -15 -37 -16 -55 -4 -11 7 -24 29 -29 48 -8
30 -4 43 28 101 40 71 40 82 -6 123 -12 12 -42 31 -64 42 -55 28 -61 47 -25
83 l29 29 -30 0 c-21 0 -40 -10 -64 -34z m36 -6 c-18 -33 -3 -56 54 -89 97
-54 106 -80 56 -149 -34 -47 -38 -87 -15 -132 19 -37 53 -46 94 -26 44 23 55
49 42 101 -13 51 -3 85 31 109 37 26 54 21 33 -10 -25 -39 -5 -123 40 -168 15
-14 14 -20 -9 -59 -36 -60 -34 -71 9 -64 19 3 35 4 35 2 0 -2 -13 -17 -30 -33
-32 -33 -39 -62 -15 -62 14 0 14 -3 1 -29 -19 -36 -23 -38 -150 -52 -213 -25
-321 23 -333 147 l-5 49 28 -34 c33 -41 79 -61 137 -61 50 0 87 27 87 64 0 29
-22 48 -83 70 -44 16 -77 47 -77 71 0 5 27 41 60 79 34 39 60 79 60 91 0 25
-23 49 -63 64 -52 20 -55 90 -5 125 29 21 31 20 18 -4z m3050 -20 c18 -33 11
-67 -16 -89 -15 -12 -33 -21 -40 -21 -14 0 -44 -38 -44 -56 0 -6 29 -46 64
-88 47 -56 62 -83 59 -98 -7 -24 -59 -58 -89 -58 -28 0 -74 -37 -74 -60 0 -80
162 -93 225 -18 l25 30 0 -39 c0 -53 -32 -101 -83 -123 -56 -25 -93 -26 -259
-10 l-137 13 14 28 c19 36 19 39 -5 39 -26 0 -25 4 6 46 l26 34 -42 0 -43 0
27 25 c14 13 26 31 26 39 0 8 3 21 6 30 5 12 0 16 -17 16 l-22 0 21 23 c11 12
25 35 31 50 14 36 14 104 1 112 -5 3 -10 10 -10 16 0 17 27 9 55 -16 26 -25
27 -29 20 -93 -7 -74 1 -89 58 -111 35 -14 61 -1 82 39 22 43 19 72 -15 116
-37 49 -40 95 -6 121 13 10 45 31 71 46 45 26 47 30 42 63 -5 31 -4 33 13 24
11 -6 24 -19 30 -30z m-1197 -9 c11 -2 -20 -58 -38 -68 -10 -6 -18 -39 -25
-113 -5 -58 -12 -122 -15 -142 -4 -32 -2 -38 12 -38 14 0 32 37 78 158 32 86
69 167 82 180 21 20 31 22 149 22 175 0 185 -10 140 -131 l-24 -64 -66 -3
c-76 -3 -77 -2 -47 78 l19 50 -32 0 -33 0 -48 -132 c-26 -73 -49 -138 -52
-145 -4 -9 4 -13 25 -13 27 0 31 5 58 75 l29 75 71 0 72 0 -29 -77 c-58 -151
-62 -153 -316 -153 -140 0 -194 3 -207 13 -15 11 -17 25 -14 80 l3 67 -37 0
c-34 0 -41 -5 -64 -42 -15 -24 -40 -60 -56 -80 -26 -34 -35 -38 -74 -38 -24 0
-44 2 -44 4 0 7 251 401 267 418 8 9 29 18 47 20 28 3 149 2 169 -1z m-1019
-17 c30 -29 12 -128 -30 -175 -9 -10 -17 -40 -18 -67 -4 -65 -39 -136 -80
-162 -30 -18 -50 -20 -210 -20 -97 0 -176 4 -176 9 0 20 43 61 64 61 20 0 29
16 74 138 29 77 52 143 52 148 0 5 -30 7 -66 6 -36 -2 -70 0 -75 5 -5 5 0 23
11 41 l20 32 209 0 c177 0 212 -2 225 -16z m236 8 c0 -5 -29 -86 -64 -180
l-63 -171 71 -3 c65 -3 71 -5 68 -23 -2 -11 -11 -28 -21 -38 -15 -15 -34 -17
-153 -15 l-135 3 78 205 c44 113 86 211 96 218 19 13 123 17 123 4z m450 -5
c0 -7 -7 -23 -16 -35 -13 -19 -24 -22 -88 -22 l-73 0 -11 -39 c-18 -60 -18
-61 48 -61 65 0 72 -8 44 -48 -13 -19 -24 -22 -77 -22 l-62 0 -21 -60 -21 -60
73 0 c83 0 93 -11 49 -55 -23 -24 -29 -25 -155 -25 -77 0 -130 4 -130 10 0 26
152 407 167 418 24 17 273 17 273 -1z m950 8 c0 -2 -11 -34 -25 -71 -31 -82
-31 -91 -2 -89 17 1 28 16 52 74 17 40 38 77 48 82 9 6 41 9 71 7 l54 -3 -68
-177 -67 -178 73 0 c67 0 74 -2 74 -20 0 -11 -9 -29 -20 -40 -18 -18 -33 -20
-155 -20 -77 0 -135 4 -135 9 0 5 14 46 30 91 17 45 30 83 30 86 0 2 -11 4
-24 4 -20 0 -28 -11 -56 -80 -18 -44 -42 -87 -53 -95 -13 -9 -44 -15 -75 -15
-48 0 -53 2 -47 18 4 9 38 100 76 202 42 112 78 192 90 203 14 11 38 17 75 17
30 0 54 -2 54 -5z m-1130 -465 c0 -24 -21 -60 -35 -60 -11 0 -14 7 -10 28 3
15 -5 -2 -18 -38 -22 -60 -26 -65 -55 -68 -37 -4 -39 5 -17 67 l14 41 -49 0
c-50 0 -59 7 -40 26 13 13 210 16 210 4z m40 -2 c0 -30 -13 -58 -26 -58 -17 0
-18 24 -4 51 12 21 30 26 30 7z m90 -2 c0 -7 -5 -27 -11 -45 -9 -27 -16 -31
-45 -31 -38 0 -40 6 -20 55 13 29 20 35 45 35 19 0 31 -5 31 -14z m82 8 c4 -3
-4 -36 -16 -72 -22 -65 -24 -67 -59 -70 -21 -2 -37 -1 -37 1 0 3 32 100 45
135 4 12 56 17 67 6z m338 -18 c0 -8 -10 -16 -22 -18 -32 -5 -35 -28 -3 -28
15 0 24 -4 20 -10 -3 -5 -17 -10 -30 -10 -18 0 -25 -7 -30 -30 -6 -27 -10 -30
-46 -30 -44 0 -43 -1 -29 34 8 23 7 26 -10 26 -11 0 -20 7 -20 15 0 10 10 15
28 15 23 1 24 2 10 11 -40 23 -17 31 100 37 22 1 32 -2 32 -12z m-200 -51 c0
-12 -14 -15 -70 -15 -64 0 -81 6 -63 23 3 4 35 7 70 7 49 0 63 -3 63 -15z"/>
<path d="M1892 1582 c-17 -17 -232 -357 -232 -367 0 -3 8 -5 18 -5 12 0 35 26
66 75 l48 75 59 0 59 0 0 -75 0 -75 203 0 203 0 26 28 c24 24 68 118 68 142 0
6 -20 10 -43 10 l-44 0 -29 -77 -29 -78 -48 -3 c-36 -2 -49 1 -53 13 -6 15 89
286 109 313 11 14 103 17 111 3 4 -5 -3 -30 -14 -56 -11 -26 -20 -49 -20 -51
0 -2 20 -4 44 -4 l44 0 21 62 c28 84 23 88 -124 88 -95 0 -114 -3 -128 -18
-21 -23 -137 -305 -137 -332 0 -17 -6 -20 -38 -20 -21 0 -41 2 -43 4 -5 5 19
313 26 334 2 6 14 12 25 12 11 0 20 5 20 10 0 6 -32 10 -75 10 -59 0 -79 -4
-93 -18z m29 -107 c-5 -68 -9 -80 -23 -79 -10 1 -31 2 -48 3 l-30 1 51 80 c29
45 53 80 54 78 1 -2 -1 -39 -4 -83z"/>
<path d="M1876 1445 c-13 -20 -14 -25 -2 -25 7 0 16 10 19 22 9 31 2 33 -17 3z"/>
<path d="M640 1580 c0 -6 32 -10 75 -10 41 0 75 -3 75 -6 0 -4 -28 -81 -62
-170 -60 -156 -64 -164 -90 -164 -15 0 -30 -4 -33 -10 -4 -7 49 -10 152 -10
180 0 192 4 224 74 21 45 25 106 8 123 -7 7 -3 15 14 26 31 20 57 75 57 121
l0 36 -210 0 c-133 0 -210 -4 -210 -10z m343 -22 c5 -14 -28 -105 -45 -125 -7
-8 -25 -10 -56 -6 -26 3 -48 7 -49 8 -2 1 9 31 23 68 l26 67 48 0 c30 0 50 -5
53 -12z m-67 -173 c8 -19 -33 -127 -53 -142 -20 -15 -103 -17 -103 -3 0 10 46
135 55 151 10 15 95 11 101 -6z"/>
<path d="M882 1501 c-16 -51 -16 -51 13 -51 24 0 35 13 55 64 9 25 8 26 -24
26 -30 0 -34 -4 -44 -39z"/>
<path d="M830 1365 c0 -2 -9 -27 -20 -55 l-20 -50 31 0 c26 0 32 6 49 46 26
60 25 64 -10 64 -16 0 -30 -2 -30 -5z"/>
<path d="M1192 1573 c-6 -10 -37 -90 -70 -178 -33 -88 -64 -168 -67 -177 -7
-17 2 -18 108 -18 90 0 117 3 127 15 11 13 3 15 -64 15 -76 0 -77 1 -70 23 4
12 33 93 64 180 l58 157 -39 0 c-26 0 -41 -5 -47 -17z"/>
<path d="M1498 1583 c-9 -10 -45 -97 -81 -193 l-65 -175 106 -5 c62 -3 115 -1
127 5 15 8 2 11 -58 13 -57 2 -78 6 -74 15 2 7 15 44 28 84 l23 72 70 3 c44 2
71 7 74 16 3 9 -14 12 -62 12 l-65 0 23 68 23 67 71 3 c46 2 74 8 82 17 11 13
-2 15 -97 15 -92 0 -112 -3 -125 -17z"/>
<path d="M2597 1588 c-13 -11 -147 -348 -147 -372 0 -4 19 -6 43 -4 l42 3 34
93 34 92 55 0 c48 0 53 -2 47 -17 -4 -10 -20 -53 -36 -95 l-28 -78 119 0 c68
0 121 4 125 10 4 6 -22 10 -69 10 -42 0 -76 4 -76 9 0 5 29 86 65 180 36 94
65 173 65 176 0 3 -15 5 -33 5 -43 0 -58 -18 -87 -102 l-24 -68 -53 0 c-29 0
-53 2 -53 4 0 3 13 41 30 85 l29 81 -32 0 c-18 0 -41 -6 -50 -12z"/>
</g>
</svg>
